<svg width="16" height="19" viewBox="0 0 16 19" fill="none" xmlns="http://www.w3.org/2000/svg">
<path d="M14.7869 7.47305C14.7869 7.47305 10.2819 2.97105 8.52794 1.21805C8.38094 1.07205 8.18894 0.998047 7.99794 0.998047C7.80594 0.998047 7.61394 1.07205 7.46694 1.21805C5.71394 2.97105 1.21094 7.47005 1.21094 7.47005C1.06394 7.61705 0.991937 7.80905 0.993937 8.00205C0.994937 8.19205 1.06894 8.38205 1.21494 8.52705C1.50694 8.82005 1.98094 8.82205 2.27094 8.53105L7.24794 3.55505V18.247C7.24794 18.661 7.58394 18.997 7.99794 18.997C8.41094 18.997 8.74794 18.661 8.74794 18.247V3.55505L13.7259 8.53305C14.0149 8.82305 14.4879 8.82005 14.7809 8.52705C14.9259 8.38205 14.9999 8.19205 15.0019 8.00205C15.0039 7.81005 14.9319 7.61805 14.7869 7.47305Z" fill="white"/>
</svg>
