<svg width="169" height="49" viewBox="0 0 169 49" fill="none" xmlns="http://www.w3.org/2000/svg">
<g clip-path="url(#clip0_34_136)">
<path d="M28.0114 29.6948V19.3116H14.4299L19.5334 10.3896H25.9764V0H13.9962V0.0128744L0 24.5L13.9962 48.9871V49H14.0025H14.0089H25.9764V38.6168H19.527L14.4299 29.6948H28.0114Z" fill="#0060AF"/>
<path d="M28.0114 29.6948V19.3116H14.4299L19.5334 10.3896H25.9764V0H13.9962V0.0128744L0 24.5L13.9962 48.9871V49H14.0025H14.0089H25.9764V38.6168H19.527L14.4299 29.6948H28.0114Z" fill="white"/>
<path d="M56.0109 24.5L42.0084 0H42.002H30.0281V10.3896H36.4839L41.581 19.3116H28.0059V29.6948H41.581L36.4839 38.6168H30.0281V49H42.0084L56.0109 24.5Z" fill="#00AA70"/>
<path d="M56.0109 24.5L42.0084 0H42.002H30.0281V10.3896H36.4839L41.581 19.3116H28.0059V29.6948H41.581L36.4839 38.6168H30.0281V49H42.0084L56.0109 24.5Z" fill="white"/>
<path d="M65.0312 2.59375H69.2224V9.82274H74.5236V2.59375H78.7658V21.6479H74.6002V13.4211H69.248V21.6479H65.0312V2.59375Z" fill="#0060AF"/>
<path d="M65.0312 2.59375H69.2224V9.82274H74.5236V2.59375H78.7658V21.6479H74.6002V13.4211H69.248V21.6479H65.0312V2.59375Z" fill="white"/>
<path d="M92.0015 2.59375L97.4558 21.6479H93.4113L92.4608 17.8564H86.6748L85.6988 21.6479H81.6543L86.981 2.59375H92.0015ZM89.5582 5.99259H89.4498L87.3957 14.612H91.6379L89.5582 5.99259Z" fill="#0060AF"/>
<path d="M92.0015 2.59375L97.4558 21.6479H93.4113L92.4608 17.8564H86.6748L85.6988 21.6479H81.6543L86.981 2.59375H92.0015ZM89.5582 5.99259H89.4498L87.3957 14.612H91.6379L89.5582 5.99259Z" fill="white"/>
<path d="M100.339 2.59353H104.301L109.162 11.4962C109.366 11.8889 109.628 12.4038 109.8 12.7836C109.876 12.9381 110.132 13.6398 110.215 13.7685H110.342L110.24 11.8374C110.164 10.5499 110.164 10.3825 110.164 9.65514V2.57422H113.991V21.6283H110.578L105.564 12.3974C105.025 11.3821 104.552 10.3328 104.148 9.25604H104.02C104.02 9.8032 104.148 12.2171 104.148 12.7128V21.6412H100.32L100.339 2.59353Z" fill="#0060AF"/>
<path d="M100.339 2.59353H104.301L109.162 11.4962C109.366 11.8889 109.628 12.4038 109.8 12.7836C109.876 12.9381 110.132 13.6398 110.215 13.7685H110.342L110.24 11.8374C110.164 10.5499 110.164 10.3825 110.164 9.65514V2.57422H113.991V21.6283H110.578L105.564 12.3974C105.025 11.3821 104.552 10.3328 104.148 9.25604H104.02C104.02 9.8032 104.148 12.2171 104.148 12.7128V21.6412H100.32L100.339 2.59353Z" fill="white"/>
<path d="M118.131 2.59422H122.354V21.6483H118.131V2.59422ZM132.771 2.59422L127.03 11.4711L133.741 21.6483H128.759L122.507 11.7544L128.217 2.56848L132.771 2.59422Z" fill="#0060AF"/>
<path d="M118.131 2.59422H122.354V21.6483H118.131V2.59422ZM132.771 2.59422L127.03 11.4711L133.741 21.6483H128.759L122.507 11.7544L128.217 2.56848L132.771 2.59422Z" fill="white"/>
<path d="M136.032 2.59375H140.306V15.1592C140.306 16.2986 140.306 18.661 142.858 18.661C143.655 18.661 145.505 18.661 145.505 15.1849V2.59375H149.696V15.2107C149.696 16.3501 149.696 19.1052 147.744 20.6887C146.405 21.7018 144.76 22.2158 143.087 22.1436C141.103 22.1436 139.075 21.6479 137.914 20.56C136.089 18.8155 136 16.6397 136 14.9274L136.032 2.59375Z" fill="#0060AF"/>
<path d="M136.032 2.59375H140.306V15.1592C140.306 16.2986 140.306 18.661 142.858 18.661C143.655 18.661 145.505 18.661 145.505 15.1849V2.59375H149.696V15.2107C149.696 16.3501 149.696 19.1052 147.744 20.6887C146.405 21.7018 144.76 22.2158 143.087 22.1436C141.103 22.1436 139.075 21.6479 137.914 20.56C136.089 18.8155 136 16.6397 136 14.9274L136.032 2.59375Z" fill="white"/>
<path d="M153.402 2.59422H157.625V21.6483H153.402V2.59422ZM168.075 2.59422L162.333 11.4711L169.012 21.6483H164.049L157.779 11.7544L163.488 2.56848L168.075 2.59422Z" fill="#0060AF"/>
<path d="M153.402 2.59422H157.625V21.6483H153.402V2.59422ZM168.075 2.59422L162.333 11.4711L169.012 21.6483H164.049L157.779 11.7544L163.488 2.56848L168.075 2.59422Z" fill="white"/>
<path d="M65.0312 33.2537C65.0312 28.8892 67.3469 26.4238 71.7423 26.4238C73.2242 26.3884 74.6773 26.8403 75.8824 27.7113C77.5857 29.0631 77.7962 31.3933 77.8409 32.9254H73.7007C73.7007 31.992 73.6178 29.9192 71.5636 29.9192C70.9876 29.9232 70.4316 30.1331 69.9943 30.5114C69.7425 30.7908 69.5507 31.1198 69.431 31.4776C69.3113 31.8354 69.2664 32.2144 69.299 32.5906V39.8196C69.299 40.8625 69.299 42.858 71.5892 42.858C73.286 42.858 73.8028 41.4547 73.8028 39.4076H77.9684C77.9837 40.1905 77.9239 40.9731 77.7898 41.7443C77.5867 43.0928 76.8761 44.3102 75.8059 45.1432C74.602 45.9971 73.1626 46.4474 71.6912 46.4306C69.5031 46.4306 67.9849 45.9092 66.8047 44.7376C66.0328 43.9845 65.0312 42.8966 65.0312 39.0021V33.2537Z" fill="#0060AF"/>
<path d="M65.0312 33.2537C65.0312 28.8892 67.3469 26.4238 71.7423 26.4238C73.2242 26.3884 74.6773 26.8403 75.8824 27.7113C77.5857 29.0631 77.7962 31.3933 77.8409 32.9254H73.7007C73.7007 31.992 73.6178 29.9192 71.5636 29.9192C70.9876 29.9232 70.4316 30.1331 69.9943 30.5114C69.7425 30.7908 69.5507 31.1198 69.431 31.4776C69.3113 31.8354 69.2664 32.2144 69.299 32.5906V39.8196C69.299 40.8625 69.299 42.858 71.5892 42.858C73.286 42.858 73.8028 41.4547 73.8028 39.4076H77.9684C77.9837 40.1905 77.9239 40.9731 77.7898 41.7443C77.5867 43.0928 76.8761 44.3102 75.8059 45.1432C74.602 45.9971 73.1626 46.4474 71.6912 46.4306C69.5031 46.4306 67.9849 45.9092 66.8047 44.7376C66.0328 43.9845 65.0312 42.8966 65.0312 39.0021V33.2537Z" fill="white"/>
<path d="M92.0015 26.8441L97.4558 45.8982H93.4177L92.4608 42.1067H86.6748L85.6988 45.8725H81.6543L86.981 26.8184L92.0015 26.8441ZM89.5582 30.243H89.4498L87.3957 38.8624H91.6379L89.5582 30.243Z" fill="#0060AF"/>
<path d="M92.0015 26.8441L97.4558 45.8982H93.4177L92.4608 42.1067H86.6748L85.6988 45.8725H81.6543L86.981 26.8184L92.0015 26.8441ZM89.5582 30.243H89.4498L87.3957 38.8624H91.6379L89.5582 30.243Z" fill="white"/>
<path d="M105.22 45.8725H101.131V26.8184H107.223C110.285 26.8184 114.17 27.2303 114.17 32.3479C114.17 34.7619 113.22 36.6029 110.572 37.4076L114.674 45.8725H110.17L106.598 38.0835H105.22V45.8725ZM105.22 35.0451C107.561 35.0451 107.918 35.0451 108.512 34.8391C109.826 34.3692 109.928 33.3328 109.928 32.2642C109.928 30.9446 109.513 30.2945 108.697 29.9855C108.059 29.7473 107.536 29.7473 105.22 29.7473V35.0451Z" fill="#0060AF"/>
<path d="M105.22 45.8725H101.131V26.8184H107.223C110.285 26.8184 114.17 27.2303 114.17 32.3479C114.17 34.7619 113.22 36.6029 110.572 37.4076L114.674 45.8725H110.17L106.598 38.0835H105.22V45.8725ZM105.22 35.0451C107.561 35.0451 107.918 35.0451 108.512 34.8391C109.826 34.3692 109.928 33.3328 109.928 32.2642C109.928 30.9446 109.513 30.2945 108.697 29.9855C108.059 29.7473 107.536 29.7473 105.22 29.7473V35.0451Z" fill="white"/>
<path d="M118.967 26.8438H125.193C126.813 26.8438 128.383 26.9467 129.461 27.6226C130.115 28.0652 130.646 28.6699 131.002 29.3789C131.359 30.0879 131.529 30.8774 131.496 31.6717C131.496 33.9826 130.36 35.4632 128.893 35.7979V35.9266C130.169 36.1133 131.904 37.4909 131.904 40.2911C131.96 41.0404 131.859 41.7932 131.606 42.5C131.353 43.2068 130.955 43.8515 130.437 44.3916C129.078 45.7949 127.451 45.8979 125.059 45.8979H118.967V26.8438ZM123.005 34.607C126.322 34.607 127.4 34.4976 127.4 32.0901C127.4 29.6826 125.729 29.7727 124.88 29.7727H123.005V34.607ZM123.005 42.8853H125.059C126.705 42.8853 127.738 42.1064 127.738 40.1623C127.738 39.2547 127.502 38.1861 126.526 37.7741C125.939 37.5424 124.466 37.5424 123.005 37.5424V42.8853Z" fill="#0060AF"/>
<path d="M118.967 26.8438H125.193C126.813 26.8438 128.383 26.9467 129.461 27.6226C130.115 28.0652 130.646 28.6699 131.002 29.3789C131.359 30.0879 131.529 30.8774 131.496 31.6717C131.496 33.9826 130.36 35.4632 128.893 35.7979V35.9266C130.169 36.1133 131.904 37.4909 131.904 40.2911C131.96 41.0404 131.859 41.7932 131.606 42.5C131.353 43.2068 130.955 43.8515 130.437 44.3916C129.078 45.7949 127.451 45.8979 125.059 45.8979H118.967V26.8438ZM123.005 34.607C126.322 34.607 127.4 34.4976 127.4 32.0901C127.4 29.6826 125.729 29.7727 124.88 29.7727H123.005V34.607ZM123.005 42.8853H125.059C126.705 42.8853 127.738 42.1064 127.738 40.1623C127.738 39.2547 127.502 38.1861 126.526 37.7741C125.939 37.5424 124.466 37.5424 123.005 37.5424V42.8853Z" fill="white"/>
<path d="M136.179 33.5636C136.179 31.6324 136.51 29.7463 137.824 28.2915C138.444 27.6719 139.185 27.1902 140 26.8775C140.816 26.5648 141.687 26.4281 142.558 26.4762C144.472 26.4762 146.264 26.9461 147.527 28.3237C148.58 29.4631 149.173 31.1496 149.173 34.2137V38.8357C149.173 41.5071 148.733 43.2194 147.546 44.5197C145.977 46.232 143.719 46.4509 142.507 46.4509C140.657 46.4509 137.62 45.775 136.67 42.5564C136.332 41.2976 136.167 39.9981 136.179 38.694V33.5636ZM140.395 39.5373C140.395 41.5328 140.784 42.9619 142.634 42.9619C144.874 42.9619 144.874 40.8634 144.874 39.5373V32.9134C144.874 31.5938 144.874 29.9845 142.685 29.9845C140.395 29.9845 140.395 32.1603 140.395 32.9134V39.5373Z" fill="#0060AF"/>
<path d="M136.179 33.5636C136.179 31.6324 136.51 29.7463 137.824 28.2915C138.444 27.6719 139.185 27.1902 140 26.8775C140.816 26.5648 141.687 26.4281 142.558 26.4762C144.472 26.4762 146.264 26.9461 147.527 28.3237C148.58 29.4631 149.173 31.1496 149.173 34.2137V38.8357C149.173 41.5071 148.733 43.2194 147.546 44.5197C145.977 46.232 143.719 46.4509 142.507 46.4509C140.657 46.4509 137.62 45.775 136.67 42.5564C136.332 41.2976 136.167 39.9981 136.179 38.694V33.5636ZM140.395 39.5373C140.395 41.5328 140.784 42.9619 142.634 42.9619C144.874 42.9619 144.874 40.8634 144.874 39.5373V32.9134C144.874 31.5938 144.874 29.9845 142.685 29.9845C140.395 29.9845 140.395 32.1603 140.395 32.9134V39.5373Z" fill="white"/>
<path d="M153.403 26.8435H157.365L162.226 35.7462C162.436 36.1388 162.692 36.6538 162.864 37.0336C162.934 37.1881 163.196 37.8898 163.272 38.0185H163.4L163.298 36.0873C163.221 34.7999 163.221 34.6325 163.221 33.9051V26.8242H167.049V45.8719H163.649L158.634 36.6281C158.096 35.6128 157.623 34.5635 157.218 33.4867H157.091C157.091 34.0339 157.218 36.4478 157.218 36.9435V45.8719H153.391L153.403 26.8435Z" fill="#0060AF"/>
<path d="M153.403 26.8435H157.365L162.226 35.7462C162.436 36.1388 162.692 36.6538 162.864 37.0336C162.934 37.1881 163.196 37.8898 163.272 38.0185H163.4L163.298 36.0873C163.221 34.7999 163.221 34.6325 163.221 33.9051V26.8242H167.049V45.8719H163.649L158.634 36.6281C158.096 35.6128 157.623 34.5635 157.218 33.4867H157.091C157.091 34.0339 157.218 36.4478 157.218 36.9435V45.8719H153.391L153.403 26.8435Z" fill="white"/>
</g>
<defs>
<clipPath id="clip0_34_136">
<rect width="169" height="49" fill="white"/>
</clipPath>
</defs>
</svg>
