<svg width="104" height="30" viewBox="0 0 104 30" fill="none" xmlns="http://www.w3.org/2000/svg">
<g clip-path="url(#clip0_61_84)">
<path d="M17.2378 18.1805V11.8234H8.87996L12.0205 6.36101H15.9855V0H8.61301V0.00788229L0 15L8.61301 29.9921V30H8.61694H8.62087H15.9855V23.6429H12.0166L8.87996 18.1805H17.2378Z" fill="#0060AF"/>
<path d="M17.2378 18.1805V11.8234H8.87996L12.0205 6.36101H15.9855V0H8.61301V0.00788229L0 15L8.61301 29.9921V30H8.61694H8.62087H15.9855V23.6429H12.0166L8.87996 18.1805H17.2378Z" fill="white"/>
<path d="M34.4673 15L25.8503 0H25.8464H18.4778V6.36101H22.4507L25.5873 11.8234H17.2334V18.1805H25.5873L22.4507 23.6429H18.4778V30H25.8503L34.4673 15Z" fill="#00AA70"/>
<path d="M34.4673 15L25.8503 0H25.8464H18.4778V6.36101H22.4507L25.5873 11.8234H17.2334V18.1805H25.5873L22.4507 23.6429H18.4778V30H25.8503L34.4673 15Z" fill="white"/>
<path d="M40.0186 1.58801H42.5978V6.01392H45.86V1.58801H48.4706V13.2538H45.9071V8.21702H42.6135V13.2538H40.0186V1.58801Z" fill="#0060AF"/>
<path d="M40.0186 1.58801H42.5978V6.01392H45.86V1.58801H48.4706V13.2538H45.9071V8.21702H42.6135V13.2538H40.0186V1.58801Z" fill="white"/>
<path d="M56.6165 1.58801L59.973 13.2538H57.4841L56.8992 10.9325H53.3386L52.7379 13.2538H50.249L53.527 1.58801H56.6165ZM55.113 3.66894H55.0462L53.7822 8.94614H56.3928L55.113 3.66894Z" fill="#0060AF"/>
<path d="M56.6165 1.58801L59.973 13.2538H57.4841L56.8992 10.9325H53.3386L52.7379 13.2538H50.249L53.527 1.58801H56.6165ZM55.113 3.66894H55.0462L53.7822 8.94614H56.3928L55.113 3.66894Z" fill="white"/>
<path d="M61.7471 1.58787H64.185L67.1764 7.03849C67.302 7.27889 67.463 7.59419 67.569 7.82671C67.6161 7.9213 67.7731 8.35089 67.8241 8.42971H67.9026L67.8398 7.24736C67.7927 6.45914 67.7927 6.35666 67.7927 5.91131V1.57605H70.1482V13.2418H68.0479L64.9623 7.59024C64.6308 6.96865 64.3397 6.32622 64.0908 5.66696H64.0123C64.0123 6.00196 64.0908 7.47989 64.0908 7.78335V13.2497H61.7354L61.7471 1.58787Z" fill="#0060AF"/>
<path d="M61.7471 1.58787H64.185L67.1764 7.03849C67.302 7.27889 67.463 7.59419 67.569 7.82671C67.6161 7.9213 67.7731 8.35089 67.8241 8.42971H67.9026L67.8398 7.24736C67.7927 6.45914 67.7927 6.35666 67.7927 5.91131V1.57605H70.1482V13.2418H68.0479L64.9623 7.59024C64.6308 6.96865 64.3397 6.32622 64.0908 5.66696H64.0123C64.0123 6.00196 64.0908 7.47989 64.0908 7.78335V13.2497H61.7354L61.7471 1.58787Z" fill="white"/>
<path d="M72.6963 1.58802H75.2951V13.2538H72.6963V1.58802ZM81.7058 1.58802L78.1727 7.02286L82.3025 13.2538H79.2365L75.3893 7.19628L78.9028 1.57227L81.7058 1.58802Z" fill="#0060AF"/>
<path d="M72.6963 1.58802H75.2951V13.2538H72.6963V1.58802ZM81.7058 1.58802L78.1727 7.02286L82.3025 13.2538H79.2365L75.3893 7.19628L78.9028 1.57227L81.7058 1.58802Z" fill="white"/>
<path d="M83.712 1.58801H86.3422V9.28114C86.3422 9.97872 86.3422 11.4251 87.9125 11.4251C88.4032 11.4251 89.5417 11.4251 89.5417 9.29689V1.58801H92.1209V9.31266C92.1209 10.0102 92.1209 11.6971 90.9196 12.6666C90.0955 13.2868 89.0829 13.6015 88.0538 13.5573C86.8329 13.5573 85.5846 13.2538 84.8701 12.5878C83.7473 11.5197 83.6924 10.1876 83.6924 9.13925L83.712 1.58801Z" fill="#0060AF"/>
<path d="M83.712 1.58801H86.3422V9.28114C86.3422 9.97872 86.3422 11.4251 87.9125 11.4251C88.4032 11.4251 89.5417 11.4251 89.5417 9.29689V1.58801H92.1209V9.31266C92.1209 10.0102 92.1209 11.6971 90.9196 12.6666C90.0955 13.2868 89.0829 13.6015 88.0538 13.5573C86.8329 13.5573 85.5846 13.2538 84.8701 12.5878C83.7473 11.5197 83.6924 10.1876 83.6924 9.13925L83.712 1.58801Z" fill="white"/>
<path d="M94.4014 1.58802H97.0002V13.2538H94.4014V1.58802ZM103.431 1.58802L99.8974 7.02286L104.008 13.2538H100.953L97.0944 7.19628L100.608 1.57227L103.431 1.58802Z" fill="#0060AF"/>
<path d="M94.4014 1.58802H97.0002V13.2538H94.4014V1.58802ZM103.431 1.58802L99.8974 7.02286L104.008 13.2538H100.953L97.0944 7.19628L100.608 1.57227L103.431 1.58802Z" fill="white"/>
<path d="M40.0186 20.3585C40.0186 17.6864 41.4436 16.177 44.1484 16.177C45.0604 16.1553 45.9546 16.4319 46.6962 16.9652C47.7444 17.7928 47.8739 19.2195 47.9014 20.1575H45.3536C45.3536 19.5861 45.3026 18.317 44.0385 18.317C43.684 18.3195 43.3419 18.4479 43.0728 18.6796C42.9178 18.8506 42.7997 19.052 42.7261 19.2711C42.6525 19.4902 42.6248 19.7222 42.6449 19.9526V24.3785C42.6449 25.017 42.6449 26.2387 44.0542 26.2387C45.0984 26.2387 45.4164 25.3795 45.4164 24.1262H47.9799C47.9893 24.6056 47.9525 25.0847 47.87 25.5569C47.745 26.3824 47.3077 27.1278 46.6491 27.6378C45.9083 28.1606 45.0225 28.4363 44.117 28.426C42.7705 28.426 41.8362 28.1068 41.1099 27.3895C40.6349 26.9284 40.0186 26.2623 40.0186 23.878V20.3585Z" fill="#0060AF"/>
<path d="M40.0186 20.3585C40.0186 17.6864 41.4436 16.177 44.1484 16.177C45.0604 16.1553 45.9546 16.4319 46.6962 16.9652C47.7444 17.7928 47.8739 19.2195 47.9014 20.1575H45.3536C45.3536 19.5861 45.3026 18.317 44.0385 18.317C43.684 18.3195 43.3419 18.4479 43.0728 18.6796C42.9178 18.8506 42.7997 19.052 42.7261 19.2711C42.6525 19.4902 42.6248 19.7222 42.6449 19.9526V24.3785C42.6449 25.017 42.6449 26.2387 44.0542 26.2387C45.0984 26.2387 45.4164 25.3795 45.4164 24.1262H47.9799C47.9893 24.6056 47.9525 25.0847 47.87 25.5569C47.745 26.3824 47.3077 27.1278 46.6491 27.6378C45.9083 28.1606 45.0225 28.4363 44.117 28.426C42.7705 28.426 41.8362 28.1068 41.1099 27.3895C40.6349 26.9284 40.0186 26.2623 40.0186 23.878V20.3585Z" fill="white"/>
<path d="M56.6165 16.4357L59.973 28.1015H57.488L56.8992 25.7801H53.3386L52.7379 28.0857H50.249L53.527 16.4199L56.6165 16.4357ZM55.113 18.5166H55.0462L53.7822 23.7938H56.3928L55.113 18.5166Z" fill="#0060AF"/>
<path d="M56.6165 16.4357L59.973 28.1015H57.488L56.8992 25.7801H53.3386L52.7379 28.0857H50.249L53.527 16.4199L56.6165 16.4357ZM55.113 18.5166H55.0462L53.7822 23.7938H56.3928L55.113 18.5166Z" fill="white"/>
<path d="M64.7508 28.0857H62.2344V16.4199H65.9834C67.8678 16.4199 70.2585 16.6722 70.2585 19.8054C70.2585 21.2833 69.6736 22.4105 68.0444 22.9031L70.5687 28.0857H67.7971L65.5987 23.3169H64.7508V28.0857ZM64.7508 21.4567C66.1915 21.4567 66.4113 21.4567 66.7764 21.3306C67.5851 21.0429 67.6479 20.4084 67.6479 19.7541C67.6479 18.9462 67.3928 18.5481 66.8903 18.359C66.4977 18.2131 66.1758 18.2132 64.7508 18.2132V21.4567Z" fill="#0060AF"/>
<path d="M64.7508 28.0857H62.2344V16.4199H65.9834C67.8678 16.4199 70.2585 16.6722 70.2585 19.8054C70.2585 21.2833 69.6736 22.4105 68.0444 22.9031L70.5687 28.0857H67.7971L65.5987 23.3169H64.7508V28.0857ZM64.7508 21.4567C66.1915 21.4567 66.4113 21.4567 66.7764 21.3306C67.5851 21.0429 67.6479 20.4084 67.6479 19.7541C67.6479 18.9462 67.3928 18.5481 66.8903 18.359C66.4977 18.2131 66.1758 18.2132 64.7508 18.2132V21.4567Z" fill="white"/>
<path d="M73.2109 16.4355H77.0424C78.0396 16.4355 79.0053 16.4986 79.6687 16.9124C80.0715 17.1834 80.3981 17.5536 80.6174 17.9877C80.8367 18.4218 80.9413 18.9051 80.921 19.3914C80.921 20.8063 80.2223 21.7127 79.3193 21.9177V21.9965C80.1045 22.1108 81.1723 22.9542 81.1723 24.6686C81.207 25.1273 81.1445 25.5883 80.9889 26.021C80.8333 26.4538 80.588 26.8485 80.2694 27.1791C79.4332 28.0383 78.4321 28.1013 76.96 28.1013H73.2109V16.4355ZM75.6959 21.1886C77.7373 21.1886 78.4007 21.1216 78.4007 19.6476C78.4007 18.1736 77.3722 18.2288 76.8501 18.2288H75.6959V21.1886ZM75.6959 26.2569H76.96C77.9728 26.2569 78.6088 25.78 78.6088 24.5898C78.6088 24.0341 78.4635 23.3798 77.8629 23.1276C77.5017 22.9857 76.5949 22.9857 75.6959 22.9857V26.2569Z" fill="#0060AF"/>
<path d="M73.2109 16.4355H77.0424C78.0396 16.4355 79.0053 16.4986 79.6687 16.9124C80.0715 17.1834 80.3981 17.5536 80.6174 17.9877C80.8367 18.4218 80.9413 18.9051 80.921 19.3914C80.921 20.8063 80.2223 21.7127 79.3193 21.9177V21.9965C80.1045 22.1108 81.1723 22.9542 81.1723 24.6686C81.207 25.1273 81.1445 25.5883 80.9889 26.021C80.8333 26.4538 80.588 26.8485 80.2694 27.1791C79.4332 28.0383 78.4321 28.1013 76.96 28.1013H73.2109V16.4355ZM75.6959 21.1886C77.7373 21.1886 78.4007 21.1216 78.4007 19.6476C78.4007 18.1736 77.3722 18.2288 76.8501 18.2288H75.6959V21.1886ZM75.6959 26.2569H76.96C77.9728 26.2569 78.6088 25.78 78.6088 24.5898C78.6088 24.0341 78.4635 23.3798 77.8629 23.1276C77.5017 22.9857 76.5949 22.9857 75.6959 22.9857V26.2569Z" fill="white"/>
<path d="M83.8021 20.55C83.8021 19.3677 84.0063 18.2129 84.815 17.3222C85.1961 16.9429 85.6523 16.648 86.154 16.4565C86.6558 16.2651 87.1919 16.1814 87.7279 16.2108C88.9056 16.2108 90.0087 16.4985 90.786 17.3419C91.4337 18.0395 91.7988 19.0721 91.7988 20.9481V23.7778C91.7988 25.4134 91.5279 26.4618 90.7978 27.2579C89.832 28.3062 88.4423 28.4402 87.6965 28.4402C86.558 28.4402 84.6893 28.0264 84.1044 26.0558C83.8964 25.2852 83.7947 24.4895 83.8021 23.6911V20.55ZM86.397 24.2074C86.397 25.4292 86.6365 26.3041 87.775 26.3041C89.1529 26.3041 89.1529 25.0193 89.1529 24.2074V20.152C89.1529 19.344 89.1529 18.3588 87.8064 18.3588C86.397 18.3588 86.397 19.6909 86.397 20.152V24.2074Z" fill="#0060AF"/>
<path d="M83.8021 20.55C83.8021 19.3677 84.0063 18.2129 84.815 17.3222C85.1961 16.9429 85.6523 16.648 86.154 16.4565C86.6558 16.2651 87.1919 16.1814 87.7279 16.2108C88.9056 16.2108 90.0087 16.4985 90.786 17.3419C91.4337 18.0395 91.7988 19.0721 91.7988 20.9481V23.7778C91.7988 25.4134 91.5279 26.4618 90.7978 27.2579C89.832 28.3062 88.4423 28.4402 87.6965 28.4402C86.558 28.4402 84.6893 28.0264 84.1044 26.0558C83.8964 25.2852 83.7947 24.4895 83.8021 23.6911V20.55ZM86.397 24.2074C86.397 25.4292 86.6365 26.3041 87.775 26.3041C89.1529 26.3041 89.1529 25.0193 89.1529 24.2074V20.152C89.1529 19.344 89.1529 18.3588 87.8064 18.3588C86.397 18.3588 86.397 19.6909 86.397 20.152V24.2074Z" fill="white"/>
<path d="M94.4014 16.4357H96.8393L99.8307 21.8863C99.9602 22.1267 100.117 22.442 100.223 22.6745C100.266 22.7691 100.427 23.1987 100.474 23.2775H100.553L100.49 22.0951C100.443 21.3069 100.443 21.2044 100.443 20.7591V16.4238H102.799V28.0857H100.706L97.6205 22.4262C97.2891 21.8046 96.9979 21.1622 96.749 20.5029H96.6705C96.6705 20.8379 96.749 22.3158 96.749 22.6193V28.0857H94.3936L94.4014 16.4357Z" fill="#0060AF"/>
<path d="M94.4014 16.4357H96.8393L99.8307 21.8863C99.9602 22.1267 100.117 22.442 100.223 22.6745C100.266 22.7691 100.427 23.1987 100.474 23.2775H100.553L100.49 22.0951C100.443 21.3069 100.443 21.2044 100.443 20.7591V16.4238H102.799V28.0857H100.706L97.6205 22.4262C97.2891 21.8046 96.9979 21.1622 96.749 20.5029H96.6705C96.6705 20.8379 96.749 22.3158 96.749 22.6193V28.0857H94.3936L94.4014 16.4357Z" fill="white"/>
</g>
<defs>
<clipPath id="clip0_61_84">
<rect width="104" height="30" fill="white"/>
</clipPath>
</defs>
</svg>
